<?xml version="1.0" encoding="utf-8"?><svg width="16" height="32" viewBox="0 0 16 32" xmlns="http://www.w3.org/2000/svg" xmlns:xlink="http://www.w3.org/1999/xlink"><svg width="16" height="16" viewBox="0 0 16 16" id="envelop"><path d="M14.5 2h-13C.675 2 0 2.675 0 3.5v10c0 .825.675 1.5 1.5 1.5h13c.825 0 1.5-.675 1.5-1.5v-10c0-.825-.675-1.5-1.5-1.5zM6.23 8.6L2 11.895V4.057L6.23 8.6zM2.756 4h10.488L8 7.938 2.756 4zm3.639 4.777L8 10.5l1.605-1.723L12.895 13h-9.79l3.29-4.223zM9.77 8.6L14 4.057v7.838L9.77 8.6z"/></svg><svg width="16" height="16" viewBox="0 0 16 16" id="price-tag" y="16"><path d="M15.25 0h-6c-.412 0-.989.239-1.28.53L.531 7.969a.752.752 0 0 0 0 1.061l6.439 6.439a.752.752 0 0 0 1.061 0L15.47 8.03c.292-.292.53-.868.53-1.28v-6a.753.753 0 0 0-.75-.75zM11.5 6a1.5 1.5 0 1 1 .001-3.001A1.5 1.5 0 0 1 11.5 6z"/></svg></svg>